<svg id="f461da4b-f218-4c9e-8e42-6aabb8141a38" data-name="Avatar" xmlns="http://www.w3.org/2000/svg" viewBox="0 0 264 280"><defs><style>.a85109a4-01fc-4473-b9d6-6db56f8fe83d,.ba21437d-9c56-42bb-8fd2-f1fd9ca65ef1{fill:#fff;}.a35f1fa0-aba6-497b-ae80-4ac8eb43301d,.a3de0767-b11e-492c-916a-2ff5ac5f8a3a,.af38e7aa-935e-413e-a8d7-1e8ea55b41b1,.ba21437d-9c56-42bb-8fd2-f1fd9ca65ef1,.bc8e9bcd-5473-4a7b-bf7a-986d6ad90796,.bd9a9b46-83e9-44b3-af69-5d99f2e818d0,.e6c00bd4-b504-41df-a81a-7fc45a224add,.eba85e84-5a88-436b-b36a-594e7f43c7d8,.ecaa96a7-1d48-4793-a252-1d09a0e0a845,.f8b335be-39e4-48c6-99c0-5ec20a3c0970{fill-rule:evenodd;}.bd9a9b46-83e9-44b3-af69-5d99f2e818d0{fill:#d0c6ac;}.eab8a23d-c5d5-4024-b960-e6606acf9cc6{mask:url(#e991db98-b51c-44de-b1f5-76704a611a8d);}.aa58d003-f8a0-43c9-a980-c0d88ce6869e{fill:#ae5d29;}.b71fd0bc-1aaf-41f3-8224-84d0a80e0151{mask:url(#e9ef98d8-469f-4f56-8812-abcce07c2aab);}.e6c00bd4-b504-41df-a81a-7fc45a224add{fill-opacity:0.1;}.a35f1fa0-aba6-497b-ae80-4ac8eb43301d{fill:#b7c1db;}.fa33f140-ecf1-4767-bda1-4aa7bad5cf6a{mask:url(#b32cd113-06ea-49f9-ad24-cd95cd6fb539);}.a3de0767-b11e-492c-916a-2ff5ac5f8a3a{fill:#f4f4f4;}.a2e9339b-1dc2-48cc-ad2c-58c8277bd787{mask:url(#bf874bca-f322-4fc2-bc13-ff708b9f4cfe);}.ecaa96a7-1d48-4793-a252-1d09a0e0a845{fill-opacity:0.16;}.f8b335be-39e4-48c6-99c0-5ec20a3c0970,.fb469d72-50bf-40a2-963c-f39dc033db66{fill-opacity:0.6;}.aa0425e0-a1cf-4cf0-85e1-55961b85d387{mask:url(#e3fb12b7-bc5f-403d-95f1-8abbec61b01c);}.af38e7aa-935e-413e-a8d7-1e8ea55b41b1{fill:#28354b;}.f540164c-a927-41ea-bc4c-52dbbd0560f9{mask:url(#ebef25f2-4197-48e0-b2a7-95fe45a9d70e);}.bd340512-2db2-42ea-b76a-ad2fd890a803{fill:#2c1b18;}.eba85e84-5a88-436b-b36a-594e7f43c7d8{fill:#252c2f;}</style><mask id="e991db98-b51c-44de-b1f5-76704a611a8d" x="32" y="36" width="264" height="280" maskUnits="userSpaceOnUse"><g id="edc3a4cc-795f-40f1-8cd6-3f3f3ce45788"><path id="b08e2896-4f2e-4670-a4a9-c229f95bd043" class="ba21437d-9c56-42bb-8fd2-f1fd9ca65ef1" d="M156,180.61V199h4a72,72,0,0,1,72,72v9H32v-9a72,72,0,0,1,72-72h4V180.61a56,56,0,0,1-31.69-44.73A12,12,0,0,1,66,124V110A12,12,0,0,1,76,98.17V92h0a56,56,0,0,1,56-56h0a56,56,0,0,1,56,56v6.17A12,12,0,0,1,198,110v14a12,12,0,0,1-10.31,11.88A56,56,0,0,1,156,180.61Z"/></g></mask><mask id="e9ef98d8-469f-4f56-8812-abcce07c2aab" x="32" y="36" width="200" height="244" maskUnits="userSpaceOnUse"><g id="f02bb418-e334-45eb-9d40-6561d40fdd69"><path id="e93b0403-50fd-406f-ae46-184acbc4e3cf" class="ba21437d-9c56-42bb-8fd2-f1fd9ca65ef1" d="M156,180.61V199h4a72,72,0,0,1,72,72v9H32v-9a72,72,0,0,1,72-72h4V180.61a56,56,0,0,1-31.69-44.73A12,12,0,0,1,66,124V110A12,12,0,0,1,76,98.17V92h0a56,56,0,0,1,56-56h0a56,56,0,0,1,56,56v6.17A12,12,0,0,1,198,110v14a12,12,0,0,1-10.31,11.88A56,56,0,0,1,156,180.61Z"/></g></mask><mask id="b32cd113-06ea-49f9-ad24-cd95cd6fb539" x="32" y="183.07" width="200" height="96.93" maskUnits="userSpaceOnUse"><g id="a46fa5a9-00e9-4626-ab47-677e1086c8a5"><path id="b30d7649-b05c-4124-809a-e999ec854512" class="ba21437d-9c56-42bb-8fd2-f1fd9ca65ef1" d="M108,183.07c-17.92,2-31.72,7.48-32,21.57A72,72,0,0,0,32,271h0v9H232v-9a72,72,0,0,0-44-66.36c-.28-14.09-14.08-19.56-32-21.57V202h0a24,24,0,0,1-24,24h0a24,24,0,0,1-24-24Z"/></g></mask><mask id="bf874bca-f322-4fc2-bc13-ff708b9f4cfe" x="32" y="182.72" width="200" height="97.28" maskUnits="userSpaceOnUse"><g id="ec76a728-6431-459b-b6de-08a5d478fd7d"><path id="e5ed99a3-eab8-46d3-99cc-1450a259264b" class="ba21437d-9c56-42bb-8fd2-f1fd9ca65ef1" d="M108,183.07c-17.92,2-31.72,7.48-32,21.57A72,72,0,0,0,32,271h0v9H232v-9a72,72,0,0,0-44-66.36c-.28-14.09-14.08-19.56-32-21.57V202h0a24,24,0,0,1-24,24h0a24,24,0,0,1-24-24Z"/></g></mask><mask id="e3fb12b7-bc5f-403d-95f1-8abbec61b01c" x="0" y="0" width="264" height="280" maskUnits="userSpaceOnUse"><g id="a0a8bcec-5f55-46fd-a5f0-17c864e7ace6"><rect id="ba4cf062-15b8-4567-b4e4-b82bdc6caec7" class="a85109a4-01fc-4473-b9d6-6db56f8fe83d" width="264" height="280"/></g></mask><mask id="ebef25f2-4197-48e0-b2a7-95fe45a9d70e" x="74" y="34" width="264" height="280" maskUnits="userSpaceOnUse"><g id="a9059f12-668a-40a5-94e7-fe62f4fc57e7"><path id="ee6f97d9-90b0-4a2c-ab94-f2774be43801" class="ba21437d-9c56-42bb-8fd2-f1fd9ca65ef1" d="M156,58.38c-7-.7-15.36-1.13-23.71-1.13C113,57.23,93.62,59.48,90,62c-9.7,7.25-13.46,34.45-13,36-.33,1.22-1.65,1.49-2,0-.72-10.3,0-62.27,57-63s57.72,52.7,57,63c-.35,1.49-1.67,1.22-2,0,.46-1.55-3.3-28.75-13-36-1.76-1.22-7.25-2.39-14.64-3.26L163,50Z"/></g></mask></defs><g id="a2e9e0b5-a011-4357-9173-032b00dc8319"><g id="bca7f532-5acd-4ca9-a9d3-9130f6cc9e48"><g id="a26d9add-4918-43ac-8e21-559b66a8d07a"><g id="abc9eb73-85c2-494c-b99f-41b9c8a1a784"><path id="af4cccce-0126-43f8-bda2-8549530c7248" class="bd9a9b46-83e9-44b3-af69-5d99f2e818d0" d="M156,180.61V199h4a72,72,0,0,1,72,72v9H32v-9a72,72,0,0,1,72-72h4V180.61a56,56,0,0,1-31.69-44.73A12,12,0,0,1,66,124V110A12,12,0,0,1,76,98.17V92h0a56,56,0,0,1,56-56h0a56,56,0,0,1,56,56v6.17A12,12,0,0,1,198,110v14a12,12,0,0,1-10.31,11.88A56,56,0,0,1,156,180.61Z"/><g class="eab8a23d-c5d5-4024-b960-e6606acf9cc6"><g id="b1b44ec0-8cb5-43df-b6d4-33bac115e568"><g id="aec6e05a-a16d-49f8-b270-107f73e8a319"><rect class="aa58d003-f8a0-43c9-a980-c0d88ce6869e" x="32" y="36" width="264" height="280"/></g></g></g><g class="b71fd0bc-1aaf-41f3-8224-84d0a80e0151"><path id="b6def841-2a3f-48b8-a35a-54794ae741b6" class="e6c00bd4-b504-41df-a81a-7fc45a224add" d="M188,115v23a56,56,0,0,1-112,0v-8a56,56,0,0,0,112,0Z"/></g></g><g id="af753126-9993-4095-a0a6-604d1eaee26b"><g id="b30a1887-8c66-4e41-ad30-dd35a5dfd14c"><path id="bb463b5c-f73a-41c7-8a23-5571241c1e09" class="a35f1fa0-aba6-497b-ae80-4ac8eb43301d" d="M108,183.07c-17.92,2-31.72,7.48-32,21.57A72,72,0,0,0,32,271h0v9H232v-9a72,72,0,0,0-44-66.36c-.28-14.09-14.08-19.56-32-21.57V202h0a24,24,0,0,1-24,24h0a24,24,0,0,1-24-24Z"/></g><g class="fa33f140-ecf1-4767-bda1-4aa7bad5cf6a"><path id="f09d9d3a-c53c-4165-a0b0-497cbb64279a" class="a3de0767-b11e-492c-916a-2ff5ac5f8a3a" d="M102,231.74V280H95V228.15A64.77,64.77,0,0,0,102,231.74Zm67-3.59V268.5a3.5,3.5,0,0,1-7,0V231.74A64.77,64.77,0,0,0,169,228.15Z"/></g><g class="a2e9339b-1dc2-48cc-ad2c-58c8277bd787"><path id="a75be02c-8a0c-4918-b0a3-9a9b62f125ad" class="ecaa96a7-1d48-4793-a252-1d09a0e0a845" d="M91,182.72c-15,2.85-25.46,8.52-25.46,19.59C65.5,222,98.54,238,132,238s66.5-16,66.5-35.69c0-11.07-10.41-16.74-25.46-19.59,9.08,3.35,15,9,15,18.36,0,20.39-27.82,36.92-56,36.92s-56-16.53-56-36.92C76,191.71,81.88,186.07,91,182.72Z"/></g></g><g id="ac783d6e-2b63-447d-87a1-eca7b784e345"><g id="a034c3b8-a5c2-4f21-9e7d-581c94f5da4b"><path id="a369bddd-b24d-49ea-9c9c-708223729505" class="fb469d72-50bf-40a2-963c-f39dc033db66" d="M118,153c0,5.37,6.16,9,14,9s14-3.63,14-9a2,2,0,0,0-2-2,2,2,0,0,0-2,2c-1.24,2.94-4.32,4.72-10,5-5.68-.28-8.76-2.06-10-5a2,2,0,0,0-2-2A2,2,0,0,0,118,153Z"/></g><g id="b564e241-7978-4af8-96c5-d17f7fbd7301"><path id="b285b1de-356e-4ba6-b4b5-219878497f21" class="ecaa96a7-1d48-4793-a252-1d09a0e0a845" d="M120,132c0,4.42,5.37,8,12,8h0c6.63,0,12-3.58,12-8"/></g><g id="ade84ac6-3ac9-4f3c-8913-8283e89af7ea"><circle id="adea7624-0c1d-454a-bb72-179aade01704" class="fb469d72-50bf-40a2-963c-f39dc033db66" cx="106" cy="113" r="6"/><circle id="bbd8c6c5-c351-4e5b-812f-c3988127580f" class="fb469d72-50bf-40a2-963c-f39dc033db66" cx="158" cy="113" r="6"/></g><g id="e9549182-1ca3-4b5b-b552-1c87c2a851cc"><path id="e3ed7cab-f4fb-407e-8e67-d2aa9ad2718c" class="f8b335be-39e4-48c6-99c0-5ec20a3c0970" d="M102.55,87.15c-5.81.27-15.2,4.49-15,10.34a.25.25,0,0,0,.43.13c2.76-3,22.32-6,29.21-4.36.63.14,1.11-.48.71-.93-3.43-3.85-10.19-5.43-15.39-5.18"/><path id="a1a0a416-10ba-495e-817e-eff335731d48" class="f8b335be-39e4-48c6-99c0-5ec20a3c0970" d="M162.45,87.15c5.81.27,15.2,4.49,15,10.34a.25.25,0,0,1-.43.13c-2.76-3-22.32-6-29.21-4.36-.63.14-1.11-.48-.71-.93,3.43-3.85,10.19-5.43,15.39-5.18"/></g></g><g id="b6a235fd-a1f4-4c69-bb0e-2820a84427a3"><g class="aa0425e0-a1cf-4cf0-85e1-55961b85d387"><g id="fec7799e-3c9b-40b7-9b16-a7629efa109d"><g id="a8774b76-c7b5-46c1-a696-8b7cefb96d33"><g id="addc5586-f0e3-4297-a49d-d4ec8efaf10f"><path id="a2956e88-51bc-44c1-9bfb-d546ad869e15" class="af38e7aa-935e-413e-a8d7-1e8ea55b41b1" d="M156,58.38c-7-.7-15.36-1.13-23.71-1.13C113,57.23,93.62,59.48,90,62c-9.7,7.25-13.46,34.45-13,36-.33,1.22-1.65,1.49-2,0-.72-10.3,0-62.27,57-63s57.72,52.7,57,63c-.35,1.49-1.67,1.22-2,0,.46-1.55-3.3-28.75-13-36-1.76-1.22-7.25-2.39-14.64-3.26L163,50Z"/></g><g class="f540164c-a927-41ea-bc4c-52dbbd0560f9"><g id="e5bf07dd-bd33-4870-bed2-e15b94ce7d48"><g id="a51d1f41-3008-4675-a9ee-ddcae37a8277"><rect class="bd340512-2db2-42ea-b76a-ad2fd890a803" x="74" y="34" width="264" height="280"/></g></g></g></g><g id="b7df34c3-2af1-4968-a193-7a4c7db312a1"><g id="f356e847-b014-4cb4-989c-0779a8f90153"><path id="f2d1523b-47d9-4536-b57e-ddae3ef57ee2" class="bc8e9bcd-5473-4a7b-bf7a-986d6ad90796" d="M140.43,106.28a22,22,0,0,1,38.84-1.2,2.43,2.43,0,0,1,.61-.08h7.33a2.29,2.29,0,0,1,0,4.58h-6a22.31,22.31,0,0,1,.95,6.42,22,22,0,1,1-43.67-3.82,7.11,7.11,0,0,0-6.88-7.18,7,7,0,0,0-6.8,6.26A22,22,0,1,1,81.33,116a22.31,22.31,0,0,1,1-6.42h-6a2.29,2.29,0,0,1,0-4.58h7.33a2.43,2.43,0,0,1,.61.08,22,22,0,0,1,38.73,1,10.3,10.3,0,0,1,17.47.22Zm-37.1,28.05A18.33,18.33,0,1,0,85,116,18.33,18.33,0,0,0,103.33,134.33Zm56.84,0A18.33,18.33,0,1,0,141.83,116,18.33,18.33,0,0,0,160.17,134.33Z"/><path id="aaf0a1cf-08d7-4904-bfa7-a13dce0ba0f6" class="eba85e84-5a88-436b-b36a-594e7f43c7d8" d="M140.43,106.28a22,22,0,0,1,38.84-1.2,2.43,2.43,0,0,1,.61-.08h7.33a2.29,2.29,0,0,1,0,4.58h-6a22.31,22.31,0,0,1,.95,6.42,22,22,0,1,1-43.67-3.82,7.11,7.11,0,0,0-6.88-7.18,7,7,0,0,0-6.8,6.26A22,22,0,1,1,81.33,116a22.31,22.31,0,0,1,1-6.42h-6a2.29,2.29,0,0,1,0-4.58h7.33a2.43,2.43,0,0,1,.61.08,22,22,0,0,1,38.73,1,10.3,10.3,0,0,1,17.47.22Zm-37.1,28.05A18.33,18.33,0,1,0,85,116,18.33,18.33,0,0,0,103.33,134.33Zm56.84,0A18.33,18.33,0,1,0,141.83,116,18.33,18.33,0,0,0,160.17,134.33Z"/></g></g></g></g></g></g></g></g></svg>
